<?xml version="1.0" encoding="UTF-8" standalone="no"?>
<!DOCTYPE svg PUBLIC "-//W3C//DTD SVG 1.1//EN" "http://www.w3.org/Graphics/SVG/1.1/DTD/svg11.dtd">
<svg width="100%" height="100%" viewBox="0 0 48 48" version="1.1" xmlns="http://www.w3.org/2000/svg" xmlns:xlink="http://www.w3.org/1999/xlink" xml:space="preserve" xmlns:serif="http://www.serif.com/" style="fill-rule:evenodd;clip-rule:evenodd;stroke-linejoin:round;stroke-miterlimit:2;">
    <rect x="0.05" y="-0.009" width="47.984" height="48.028"/>
    <g transform="matrix(0.183116,0,0,0.183116,19.0669,10.7899)">
        <path d="M0,143.429C1.706,148.226 4.091,152.389 7.091,155.799C10.091,159.206 13.671,162.007 17.731,164.125C21.787,166.239 26.151,167.722 30.701,168.533C30.955,168.579 31.432,168.662 32.073,168.757C31.658,168.771 31.22,168.783 30.76,168.792L28.226,168.789C19.904,168.789 11.717,167.671 3.893,165.467C-3.94,163.264 -10.973,159.992 -17.009,155.742C-23.051,151.493 -27.978,146.064 -31.649,139.606C-35.325,133.145 -37.188,125.557 -37.188,117.054L-37.188,-25.604L-2.569,-25.604L-2.569,126.884C-2.569,133.071 -1.705,138.638 0,143.429M-39.384,117.051C-39.384,126.005 -37.449,133.963 -33.634,140.701C-29.817,147.452 -24.668,153.144 -18.331,157.618C-11.994,162.094 -4.7,165.477 3.349,167.674C11.408,169.87 19.778,170.985 28.226,170.985C38.467,170.985 48.361,169.333 57.625,166.08C59.139,165.574 60.584,165.037 61.921,164.484C63.32,163.908 64.679,163.289 65.958,162.646C74.572,158.417 81.742,152.437 87.27,144.87C92.791,137.31 95.589,128.033 95.589,117.297L95.589,-25.604L130.93,-25.604L130.93,-27.556L57.561,-27.556L57.561,-25.604L93.394,-25.604L93.394,117.549C93.394,122.613 92.607,127.424 91.054,131.847C89.5,136.263 87.429,140.325 84.901,143.919C82.368,147.519 79.346,150.751 75.921,153.528C72.472,156.32 68.748,158.722 64.852,160.668C63.543,161.324 62.263,161.945 61.046,162.514C59.827,163.086 58.536,163.545 57.161,163.891C51.5,166.002 45.564,167.072 39.515,167.072C34.278,167.072 29.186,166.242 24.379,164.605C19.559,162.971 15.251,160.483 11.574,157.212C7.889,153.931 4.946,149.699 2.826,144.63C0.703,139.562 -0.375,133.594 -0.375,126.887L-0.375,-25.604L30.305,-25.604L30.305,-27.556L-74.973,-27.556L-74.973,-25.604L-39.384,-25.604L-39.384,117.051Z" style="fill:rgb(236,236,235);fill-rule:nonzero;"/>
    </g>
</svg>
